.
..............................Site Info...........................

 -   http://www.scenetime.com  *_*   

Good news ! SceneTime will open sign up on Easter day for one day . Its a good chance to get on on Easter day .

Scenetime .Always on time . friendly online private torrent community ..

     We care to share . Join us on  http://www.scenetime.com 

    Be the first to get new release at  http://www.scenetime.com

        Seed back for speed


...................................NFO:.................................................[align=center]
[IMG]http://i1127.photobucket.com/albums/l621/PR3D_PICs/coverdisk-25.jpg[/IMG]

[url=http://www.imdb.com/title/tt0315733/]IMDb Link[/url]

[IMG]http://i1127.photobucket.com/albums/l621/PR3D_PICs/INFO.png[/IMG]

General

Format                         : Matroska
Format version                 : Version 2
File size                      : 762 MiB
Duration                       : 1h 59mn
Overall bit rate               : 892 Kbps
Movie name                     : Avidemux
Writing application            : Lavf52.108.0
Writing library                : Lavf52.108.0
AUTHOR                         : Avidemux

Video
ID                             : 1
Format                         : AVC
Format/Info                    : Advanced Video Codec
Format profile                 : High@L3.0
Format settings, CABAC         : Yes
Format settings, ReFrames      : 4 frames
Codec ID                       : V_MPEG4/ISO/AVC
Duration                       : 1h 59mn
Bit rate                       : 746 Kbps
Width                          : 720 pixels
Height                         : 406 pixels
Display aspect ratio           : 16:9
Frame rate mode                : Variable
Frame rate                     : 25.000 fps
Color space                    : YUV
Chroma subsampling             : 4:2:0
Bit depth                      : 8 bits
Scan type                      : Progressive
Bits/(Pixel*Frame)             : 0.102
Stream size                    : 637 MiB (84%)
Writing library                : x264 core 115 r1947 b5a8ad7
Language                       : English

Audio
ID                             : 2
Format                         : AC-3
Format/Info                    : Audio Coding 3
Mode extension                 : CM (complete main)
Codec ID                       : A_AC3
Duration                       : 1h 59mn
Bit rate mode                  : Constant
Bit rate                       : 128 Kbps
Channel(s)                     : 2 channels
Channel positions              : Front: L R
Sampling rate                  : 48.0 KHz
Bit depth                      : 16 bits
Compression mode               : Lossy
Delay relative to video        : -40ms
Stream size                    : 109 MiB (14%)
Language                       : English

[IMG]http://i1127.photobucket.com/albums/l621/PR3D_PICs/SCREEN-1.png[/IMG]

[IMG]http://i1127.photobucket.com/albums/l621/PR3D_PICs/screens-54.jpg[/IMG]

[youtube]Ss61_HwPVA8[/youtube]

[IMG]http://i1127.photobucket.com/albums/l621/PR3D_PICs/ShMee-1.jpg[/IMG]

[IMG]http://i1127.photobucket.com/albums/l621/PR3D_PICs/NEWGRSIGv3-1.png[/IMG]

[IMG]http://i1127.photobucket.com/albums/l621/PR3D_PICs/GREET.png[/IMG]


[/align]